<svg width="343" height="216" viewBox="0 0 343 216" fill="none" xmlns="http://www.w3.org/2000/svg">
<mask id="mask0" style="mask-type:alpha" maskUnits="userSpaceOnUse" x="0" y="0" width="343" height="216">
<rect width="343" height="216" rx="8" fill="#222222"/>
</mask>
<g mask="url(#mask0)">
<rect width="343" height="216" rx="8" fill="#222222"/>
<path d="M215.5 137.5C195.204 134.502 171.838 136.679 153.418 139.642C132.515 143.005 110.696 140.38 92.4927 129.567C68.4884 115.309 39.2911 112.779 13.1923 122.697L4.5 126L-4 223H284L282.425 211.028C281.81 206.357 280.712 201.786 278.764 197.496C271.629 181.785 250.541 142.677 215.5 137.5Z" fill="url(#paint0_linear)" fill-opacity="0.05"/>
<circle cx="314.5" cy="29.5" r="120.5" fill="url(#paint1_linear)" fill-opacity="0.05"/>
</g>
<path d="M300.817 183.876V182.221C300.817 181.587 300.433 181.173 299.775 181.173C299.445 181.173 299.089 181.283 298.842 181.642C298.65 181.339 298.375 181.173 297.964 181.173C297.689 181.173 297.415 181.256 297.195 181.559V181.228H296.619V183.876H297.195V182.414C297.195 181.945 297.442 181.725 297.826 181.725C298.211 181.725 298.403 181.973 298.403 182.414V183.876H298.979V182.414C298.979 181.945 299.253 181.725 299.61 181.725C299.994 181.725 300.186 181.973 300.186 182.414V183.876H300.817ZM309.351 181.228H308.418V180.428H307.842V181.228H307.321V181.752H307.842V182.966C307.842 183.572 308.089 183.931 308.748 183.931C308.995 183.931 309.269 183.848 309.461 183.738L309.297 183.241C309.132 183.352 308.94 183.379 308.803 183.379C308.528 183.379 308.418 183.214 308.418 182.938V181.752H309.351V181.228ZM314.236 181.173C313.907 181.173 313.687 181.339 313.55 181.559V181.228H312.974V183.876H313.55V182.387C313.55 181.945 313.742 181.697 314.099 181.697C314.208 181.697 314.346 181.725 314.455 181.752L314.62 181.201C314.51 181.173 314.346 181.173 314.236 181.173ZM306.854 181.449C306.58 181.256 306.196 181.173 305.784 181.173C305.126 181.173 304.687 181.504 304.687 182.028C304.687 182.469 305.016 182.718 305.592 182.8L305.866 182.828C306.168 182.883 306.333 182.966 306.333 183.104C306.333 183.297 306.113 183.435 305.729 183.435C305.345 183.435 305.043 183.297 304.851 183.159L304.577 183.6C304.879 183.821 305.29 183.931 305.702 183.931C306.47 183.931 306.909 183.572 306.909 183.076C306.909 182.607 306.553 182.359 306.004 182.276L305.729 182.249C305.482 182.221 305.29 182.166 305.29 182C305.29 181.807 305.482 181.697 305.784 181.697C306.113 181.697 306.443 181.835 306.607 181.918L306.854 181.449ZM322.166 181.173C321.837 181.173 321.617 181.339 321.48 181.559V181.228H320.904V183.876H321.48V182.387C321.48 181.945 321.672 181.697 322.029 181.697C322.139 181.697 322.276 181.725 322.386 181.752L322.55 181.201C322.441 181.173 322.276 181.173 322.166 181.173ZM314.812 182.552C314.812 183.352 315.361 183.931 316.212 183.931C316.596 183.931 316.87 183.848 317.145 183.628L316.87 183.159C316.651 183.324 316.431 183.407 316.184 183.407C315.718 183.407 315.388 183.076 315.388 182.552C315.388 182.056 315.718 181.725 316.184 181.697C316.431 181.697 316.651 181.78 316.87 181.945L317.145 181.476C316.87 181.256 316.596 181.173 316.212 181.173C315.361 181.173 314.812 181.752 314.812 182.552ZM320.136 182.552V181.228H319.559V181.559C319.367 181.311 319.093 181.173 318.736 181.173C317.995 181.173 317.419 181.752 317.419 182.552C317.419 183.352 317.995 183.931 318.736 183.931C319.12 183.931 319.395 183.793 319.559 183.545V183.876H320.136V182.552ZM318.023 182.552C318.023 182.083 318.325 181.697 318.818 181.697C319.285 181.697 319.614 182.056 319.614 182.552C319.614 183.021 319.285 183.407 318.818 183.407C318.325 183.379 318.023 183.021 318.023 182.552ZM311.135 181.173C310.367 181.173 309.818 181.725 309.818 182.552C309.818 183.379 310.367 183.931 311.163 183.931C311.547 183.931 311.931 183.821 312.233 183.572L311.958 183.159C311.739 183.324 311.464 183.435 311.19 183.435C310.833 183.435 310.477 183.269 310.394 182.8H312.342V182.58C312.37 181.725 311.876 181.173 311.135 181.173ZM311.135 181.67C311.492 181.67 311.739 181.89 311.794 182.304H310.422C310.477 181.945 310.723 181.67 311.135 181.67ZM325.432 182.552V180.18H324.855V181.559C324.663 181.311 324.389 181.173 324.032 181.173C323.291 181.173 322.715 181.752 322.715 182.552C322.715 183.352 323.291 183.931 324.032 183.931C324.416 183.931 324.691 183.793 324.855 183.545V183.876H325.432V182.552ZM323.319 182.552C323.319 182.083 323.621 181.697 324.114 181.697C324.581 181.697 324.91 182.056 324.91 182.552C324.91 183.021 324.581 183.407 324.114 183.407C323.621 183.379 323.319 183.021 323.319 182.552ZM304.055 182.552V181.228H303.479V181.559C303.287 181.311 303.013 181.173 302.656 181.173C301.915 181.173 301.339 181.752 301.339 182.552C301.339 183.352 301.915 183.931 302.656 183.931C303.04 183.931 303.315 183.793 303.479 183.545V183.876H304.055V182.552ZM301.915 182.552C301.915 182.083 302.217 181.697 302.711 181.697C303.177 181.697 303.507 182.056 303.507 182.552C303.507 183.021 303.177 183.407 302.711 183.407C302.217 183.379 301.915 183.021 301.915 182.552Z" fill="white"/>
<path d="M315.306 161.124H306.662V176.733H315.306V161.124Z" fill="#FF5F00"/>
<path d="M307.211 168.928C307.211 165.757 308.693 162.944 310.97 161.124C309.297 159.8 307.184 159 304.879 159C299.418 159 295 163.44 295 168.928C295 174.416 299.418 178.856 304.879 178.856C307.184 178.856 309.297 178.057 310.97 176.733C308.693 174.94 307.211 172.1 307.211 168.928Z" fill="#EB001B"/>
<path d="M326.968 168.928C326.968 174.416 322.55 178.856 317.09 178.856C314.785 178.856 312.672 178.057 310.998 176.733C313.303 174.913 314.757 172.1 314.757 168.928C314.757 165.757 313.275 162.944 310.998 161.124C312.672 159.8 314.785 159 317.09 159C322.55 159 326.968 163.468 326.968 168.928Z" fill="#F79E1B"/>
<mask id="mask1" style="mask-type:alpha" maskUnits="userSpaceOnUse" x="16" y="34" width="32" height="24">
<rect x="16" y="34" width="32" height="24" rx="8" fill="#FFBA49"/>
</mask>
<g mask="url(#mask1)">
<rect x="16" y="34" width="32" height="24" rx="8" fill="#FFBA49"/>
<rect x="10" y="36" width="20" height="7" rx="2.5" stroke="#D29634" stroke-width="0.3"/>
<rect x="10" y="43" width="20" height="7" rx="2.5" stroke="#D29634" stroke-width="0.3"/>
<rect x="10" y="50" width="20" height="7" rx="2.5" stroke="#D29634" stroke-width="0.3"/>
<rect x="35" y="36" width="20" height="7" rx="2.5" stroke="#D29634" stroke-width="0.3"/>
<rect x="35" y="43" width="20" height="7" rx="2.5" stroke="#D29634" stroke-width="0.3"/>
<rect x="35" y="50" width="20" height="7" rx="2.5" stroke="#D29634" stroke-width="0.3"/>
</g>
<path d="M26.3112 97.448L28.5912 94.592L25.0392 93.584L25.6152 91.88L29.0232 93.152L28.8792 89.504H30.6552L30.5112 93.152L33.9432 91.88L34.4952 93.584L30.9912 94.568L33.2472 97.448L31.8072 98.48L29.7672 95.432L27.7272 98.48L26.3112 97.448ZM42.839 97.448L45.119 94.592L41.567 93.584L42.143 91.88L45.551 93.152L45.407 89.504H47.183L47.039 93.152L50.471 91.88L51.023 93.584L47.519 94.568L49.775 97.448L48.335 98.48L46.295 95.432L44.255 98.48L42.839 97.448ZM59.3667 97.448L61.6467 94.592L58.0947 93.584L58.6707 91.88L62.0787 93.152L61.9347 89.504H63.7107L63.5667 93.152L66.9987 91.88L67.5507 93.584L64.0467 94.568L66.3027 97.448L64.8627 98.48L62.8227 95.432L60.7827 98.48L59.3667 97.448ZM75.8945 97.448L78.1745 94.592L74.6225 93.584L75.1985 91.88L78.6065 93.152L78.4625 89.504H80.2385L80.0945 93.152L83.5265 91.88L84.0785 93.584L80.5745 94.568L82.8305 97.448L81.3905 98.48L79.3505 95.432L77.3105 98.48L75.8945 97.448ZM98.4127 97.448L100.693 94.592L97.1407 93.584L97.7167 91.88L101.125 93.152L100.981 89.504H102.757L102.613 93.152L106.045 91.88L106.597 93.584L103.093 94.568L105.349 97.448L103.909 98.48L101.869 95.432L99.8287 98.48L98.4127 97.448ZM114.94 97.448L117.22 94.592L113.668 93.584L114.244 91.88L117.652 93.152L117.508 89.504H119.284L119.14 93.152L122.572 91.88L123.124 93.584L119.62 94.568L121.876 97.448L120.436 98.48L118.396 95.432L116.356 98.48L114.94 97.448ZM131.468 97.448L133.748 94.592L130.196 93.584L130.772 91.88L134.18 93.152L134.036 89.504H135.812L135.668 93.152L139.1 91.88L139.652 93.584L136.148 94.568L138.404 97.448L136.964 98.48L134.924 95.432L132.884 98.48L131.468 97.448ZM147.996 97.448L150.276 94.592L146.724 93.584L147.3 91.88L150.708 93.152L150.564 89.504H152.34L152.196 93.152L155.628 91.88L156.18 93.584L152.676 94.568L154.932 97.448L153.492 98.48L151.452 95.432L149.412 98.48L147.996 97.448ZM170.514 97.448L172.794 94.592L169.242 93.584L169.818 91.88L173.226 93.152L173.082 89.504H174.858L174.714 93.152L178.146 91.88L178.698 93.584L175.194 94.568L177.45 97.448L176.01 98.48L173.97 95.432L171.93 98.48L170.514 97.448ZM187.042 97.448L189.322 94.592L185.77 93.584L186.346 91.88L189.754 93.152L189.61 89.504H191.386L191.242 93.152L194.674 91.88L195.226 93.584L191.722 94.568L193.978 97.448L192.538 98.48L190.498 95.432L188.458 98.48L187.042 97.448ZM203.57 97.448L205.85 94.592L202.298 93.584L202.874 91.88L206.282 93.152L206.138 89.504H207.914L207.77 93.152L211.202 91.88L211.754 93.584L208.25 94.568L210.506 97.448L209.066 98.48L207.026 95.432L204.986 98.48L203.57 97.448ZM220.097 97.448L222.377 94.592L218.825 93.584L219.401 91.88L222.809 93.152L222.665 89.504H224.441L224.297 93.152L227.729 91.88L228.281 93.584L224.777 94.568L227.033 97.448L225.593 98.48L223.553 95.432L221.513 98.48L220.097 97.448ZM249.894 98.216C250.902 98.504 251.67 99 252.198 99.704C252.726 100.408 252.99 101.296 252.99 102.368C252.99 103.856 252.486 105.032 251.478 105.896C250.47 106.744 249.102 107.168 247.374 107.168C246.27 107.168 245.206 106.984 244.182 106.616C243.174 106.248 242.318 105.728 241.614 105.056L242.382 103.544C243.966 104.856 245.614 105.512 247.326 105.512C248.542 105.512 249.462 105.24 250.086 104.696C250.726 104.152 251.046 103.352 251.046 102.296C251.046 100.2 249.734 99.152 247.11 99.152H245.142V97.496H246.726C247.99 97.496 248.958 97.216 249.63 96.656C250.302 96.096 250.638 95.296 250.638 94.256C250.638 93.328 250.358 92.616 249.798 92.12C249.254 91.624 248.478 91.376 247.47 91.376C245.838 91.376 244.222 92.032 242.622 93.344L241.878 91.832C242.566 91.176 243.406 90.664 244.398 90.296C245.406 89.912 246.454 89.72 247.542 89.72C249.078 89.72 250.302 90.112 251.214 90.896C252.142 91.68 252.606 92.736 252.606 94.064C252.606 95.04 252.366 95.896 251.886 96.632C251.406 97.368 250.742 97.896 249.894 98.216ZM260.997 89.72C263.061 89.72 264.653 90.44 265.773 91.88C266.893 93.32 267.453 95.368 267.453 98.024C267.453 100.92 266.869 103.176 265.701 104.792C264.549 106.392 262.933 107.192 260.853 107.192C259.877 107.192 258.917 107.008 257.973 106.64C257.045 106.272 256.221 105.752 255.501 105.08L256.269 103.568C257.085 104.256 257.861 104.76 258.597 105.08C259.333 105.384 260.077 105.536 260.829 105.536C262.301 105.536 263.437 104.88 264.237 103.568C265.053 102.256 265.461 100.416 265.461 98.048V97.736C265.093 98.632 264.493 99.344 263.661 99.872C262.829 100.384 261.877 100.64 260.805 100.64C259.765 100.64 258.845 100.416 258.045 99.968C257.245 99.504 256.621 98.864 256.173 98.048C255.725 97.216 255.501 96.272 255.501 95.216C255.501 94.16 255.733 93.216 256.197 92.384C256.677 91.552 257.333 90.904 258.165 90.44C258.997 89.96 259.941 89.72 260.997 89.72ZM261.117 98.984C262.237 98.984 263.149 98.632 263.853 97.928C264.557 97.224 264.909 96.312 264.909 95.192C264.909 94.056 264.557 93.136 263.853 92.432C263.149 91.728 262.229 91.376 261.093 91.376C260.005 91.376 259.125 91.728 258.453 92.432C257.781 93.12 257.445 94.04 257.445 95.192C257.445 96.328 257.781 97.248 258.453 97.952C259.125 98.64 260.013 98.984 261.117 98.984ZM281.916 103.28H279.324V107H277.356V103.28H269.484V101.792L277.716 89.912H279.324V101.648H281.916V103.28ZM277.356 101.648V93.248L271.524 101.648H277.356ZM295.13 89.912V91.376L287.114 107H285.002L292.97 91.568H283.85V89.912H295.13Z" fill="white"/>
<path opacity="0.8" d="M21.163 163.15C21.993 163.15 22.6797 162.94 23.223 162.52C23.7697 162.1 24.1497 161.535 24.363 160.825L23.303 160.54C23.1597 161.043 22.9097 161.438 22.553 161.725C22.1963 162.012 21.733 162.155 21.163 162.155C20.653 162.155 20.2263 162.04 19.883 161.81C19.543 161.58 19.2863 161.258 19.113 160.845C18.943 160.432 18.8597 159.95 18.863 159.4C18.8663 158.85 18.953 158.368 19.123 157.955C19.293 157.542 19.548 157.22 19.888 156.99C20.228 156.76 20.653 156.645 21.163 156.645C21.733 156.645 22.1963 156.788 22.553 157.075C22.9097 157.362 23.1597 157.757 23.303 158.26L24.363 157.975C24.1497 157.265 23.7697 156.7 23.223 156.28C22.6797 155.86 21.993 155.65 21.163 155.65C20.443 155.65 19.8297 155.808 19.323 156.125C18.8163 156.442 18.428 156.882 18.158 157.445C17.8913 158.005 17.758 158.657 17.758 159.4C17.758 160.143 17.8913 160.797 18.158 161.36C18.428 161.92 18.8163 162.358 19.323 162.675C19.8297 162.992 20.443 163.15 21.163 163.15ZM26.9877 163.15C27.8477 163.15 28.496 162.838 28.9327 162.215V163H29.8577V159.675C29.8577 159.448 29.8477 159.237 29.8277 159.04C29.8077 158.843 29.7544 158.657 29.6677 158.48C29.501 158.123 29.2377 157.863 28.8777 157.7C28.521 157.533 28.101 157.45 27.6177 157.45C26.9944 157.45 26.4944 157.587 26.1177 157.86C25.741 158.133 25.4877 158.502 25.3577 158.965L26.3327 159.265C26.426 158.965 26.591 158.748 26.8277 158.615C27.0644 158.482 27.3244 158.415 27.6077 158.415C28.0277 158.415 28.331 158.505 28.5177 158.685C28.7077 158.862 28.811 159.137 28.8277 159.51C28.3877 159.57 27.9577 159.633 27.5377 159.7C27.1177 159.763 26.751 159.84 26.4377 159.93C26.021 160.063 25.7044 160.262 25.4877 160.525C25.271 160.788 25.1627 161.123 25.1627 161.53C25.1627 161.823 25.231 162.093 25.3677 162.34C25.5077 162.583 25.7127 162.78 25.9827 162.93C26.256 163.077 26.591 163.15 26.9877 163.15ZM27.1727 162.295C26.8394 162.295 26.5927 162.218 26.4327 162.065C26.276 161.912 26.1977 161.73 26.1977 161.52C26.1977 161.307 26.2677 161.138 26.4077 161.015C26.551 160.892 26.7294 160.793 26.9427 160.72C27.1694 160.653 27.436 160.595 27.7427 160.545C28.0527 160.495 28.411 160.44 28.8177 160.38C28.8144 160.507 28.806 160.648 28.7927 160.805C28.7794 160.962 28.751 161.102 28.7077 161.225C28.6677 161.402 28.5827 161.572 28.4527 161.735C28.326 161.898 28.1544 162.033 27.9377 162.14C27.7244 162.243 27.4694 162.295 27.1727 162.295ZM31.1561 163H32.2111V160.275C32.2111 159.958 32.2611 159.665 32.3611 159.395C32.4611 159.125 32.6377 158.908 32.8911 158.745C33.0711 158.628 33.2694 158.56 33.4861 158.54C33.7027 158.52 33.8977 158.533 34.0711 158.58V157.6C33.8277 157.553 33.5694 157.555 33.2961 157.605C33.0261 157.655 32.7894 157.755 32.5861 157.905C32.3861 158.038 32.2194 158.223 32.0861 158.46V157.6H31.1561V163ZM37.0706 163.15C37.4106 163.15 37.7139 163.093 37.9806 162.98C38.2506 162.867 38.4839 162.708 38.6806 162.505V163H39.6106V155.8H38.5606V157.97C38.3739 157.803 38.1573 157.675 37.9106 157.585C37.6639 157.495 37.3906 157.45 37.0906 157.45C36.5839 157.45 36.1456 157.575 35.7756 157.825C35.4089 158.072 35.1256 158.41 34.9256 158.84C34.7256 159.267 34.6256 159.752 34.6256 160.295C34.6256 160.835 34.7239 161.32 34.9206 161.75C35.1206 162.18 35.4039 162.522 35.7706 162.775C36.1373 163.025 36.5706 163.15 37.0706 163.15ZM37.2156 162.205C36.8823 162.205 36.6056 162.12 36.3856 161.95C36.1656 161.78 36.0023 161.552 35.8956 161.265C35.7889 160.975 35.7356 160.652 35.7356 160.295C35.7356 159.942 35.7889 159.622 35.8956 159.335C36.0056 159.048 36.1723 158.82 36.3956 158.65C36.6189 158.48 36.9039 158.395 37.2506 158.395C37.7439 158.395 38.1056 158.572 38.3356 158.925C38.5656 159.278 38.6806 159.735 38.6806 160.295C38.6806 160.855 38.5656 161.313 38.3356 161.67C38.1056 162.027 37.7323 162.205 37.2156 162.205ZM43.0115 163H44.0565V159.89H47.6565V163H48.7065V155.8H47.6565V158.905H44.0565V155.8H43.0115V163ZM52.4561 163.15C52.9928 163.15 53.4595 163.03 53.8561 162.79C54.2528 162.547 54.5595 162.212 54.7761 161.785C54.9961 161.355 55.1061 160.858 55.1061 160.295C55.1061 159.738 54.9978 159.247 54.7811 158.82C54.5645 158.39 54.2578 158.055 53.8611 157.815C53.4645 157.572 52.9961 157.45 52.4561 157.45C51.9261 157.45 51.4628 157.57 51.0661 157.81C50.6695 158.05 50.3611 158.383 50.1411 158.81C49.9211 159.237 49.8111 159.732 49.8111 160.295C49.8111 160.852 49.9195 161.345 50.1361 161.775C50.3528 162.205 50.6578 162.542 51.0511 162.785C51.4478 163.028 51.9161 163.15 52.4561 163.15ZM52.4561 162.165C51.9528 162.165 51.5711 161.997 51.3111 161.66C51.0511 161.32 50.9211 160.865 50.9211 160.295C50.9211 159.745 51.0461 159.298 51.2961 158.955C51.5461 158.608 51.9328 158.435 52.4561 158.435C52.9661 158.435 53.3495 158.603 53.6061 158.94C53.8661 159.277 53.9961 159.728 53.9961 160.295C53.9961 160.848 53.8678 161.298 53.6111 161.645C53.3578 161.992 52.9728 162.165 52.4561 162.165ZM56.3049 163H57.3499V155.65H56.3049V163ZM60.9964 163.15C61.3364 163.15 61.6397 163.093 61.9064 162.98C62.1764 162.867 62.4097 162.708 62.6064 162.505V163H63.5364V155.8H62.4864V157.97C62.2997 157.803 62.083 157.675 61.8364 157.585C61.5897 157.495 61.3164 157.45 61.0164 157.45C60.5097 157.45 60.0714 157.575 59.7014 157.825C59.3347 158.072 59.0514 158.41 58.8514 158.84C58.6514 159.267 58.5514 159.752 58.5514 160.295C58.5514 160.835 58.6497 161.32 58.8464 161.75C59.0464 162.18 59.3297 162.522 59.6964 162.775C60.063 163.025 60.4964 163.15 60.9964 163.15ZM61.1414 162.205C60.808 162.205 60.5314 162.12 60.3114 161.95C60.0914 161.78 59.928 161.552 59.8214 161.265C59.7147 160.975 59.6614 160.652 59.6614 160.295C59.6614 159.942 59.7147 159.622 59.8214 159.335C59.9314 159.048 60.098 158.82 60.3214 158.65C60.5447 158.48 60.8297 158.395 61.1764 158.395C61.6697 158.395 62.0314 158.572 62.2614 158.925C62.4914 159.278 62.6064 159.735 62.6064 160.295C62.6064 160.855 62.4914 161.313 62.2614 161.67C62.0314 162.027 61.658 162.205 61.1414 162.205ZM67.3304 163.15C67.8537 163.15 68.3287 163.018 68.7554 162.755C69.182 162.488 69.5004 162.113 69.7104 161.63L68.6854 161.305C68.412 161.878 67.9437 162.165 67.2804 162.165C66.827 162.165 66.4704 162.028 66.2104 161.755C65.9504 161.482 65.7987 161.095 65.7554 160.595H69.7804C69.817 159.948 69.7404 159.39 69.5504 158.92C69.3604 158.45 69.072 158.088 68.6854 157.835C68.2987 157.578 67.8304 157.45 67.2804 157.45C66.7537 157.45 66.292 157.568 65.8954 157.805C65.4987 158.042 65.1887 158.377 64.9654 158.81C64.7454 159.243 64.6354 159.755 64.6354 160.345C64.6354 160.902 64.747 161.392 64.9704 161.815C65.197 162.235 65.512 162.563 65.9154 162.8C66.322 163.033 66.7937 163.15 67.3304 163.15ZM67.3204 158.375C68.137 158.375 68.6004 158.843 68.7104 159.78H65.7804C65.847 159.323 66.0087 158.975 66.2654 158.735C66.522 158.495 66.8737 158.375 67.3204 158.375ZM70.9021 163H71.9571V160.275C71.9571 159.958 72.0071 159.665 72.1071 159.395C72.2071 159.125 72.3838 158.908 72.6371 158.745C72.8171 158.628 73.0155 158.56 73.2321 158.54C73.4488 158.52 73.6438 158.533 73.8171 158.58V157.6C73.5738 157.553 73.3155 157.555 73.0421 157.605C72.7721 157.655 72.5355 157.755 72.3321 157.905C72.1321 158.038 71.9655 158.223 71.8321 158.46V157.6H70.9021V163ZM76.7713 163H77.8313V157.645L81.3763 163H82.4363V155.8H81.3763V161.15L77.8313 155.8H76.7713V163ZM85.3568 163.15C86.2168 163.15 86.8652 162.838 87.3018 162.215V163H88.2268V159.675C88.2268 159.448 88.2168 159.237 88.1968 159.04C88.1768 158.843 88.1235 158.657 88.0368 158.48C87.8702 158.123 87.6068 157.863 87.2468 157.7C86.8902 157.533 86.4702 157.45 85.9868 157.45C85.3635 157.45 84.8635 157.587 84.4868 157.86C84.1102 158.133 83.8568 158.502 83.7268 158.965L84.7018 159.265C84.7952 158.965 84.9602 158.748 85.1968 158.615C85.4335 158.482 85.6935 158.415 85.9768 158.415C86.3968 158.415 86.7002 158.505 86.8868 158.685C87.0768 158.862 87.1802 159.137 87.1968 159.51C86.7568 159.57 86.3268 159.633 85.9068 159.7C85.4868 159.763 85.1202 159.84 84.8068 159.93C84.3902 160.063 84.0735 160.262 83.8568 160.525C83.6402 160.788 83.5318 161.123 83.5318 161.53C83.5318 161.823 83.6002 162.093 83.7368 162.34C83.8768 162.583 84.0818 162.78 84.3518 162.93C84.6252 163.077 84.9602 163.15 85.3568 163.15ZM85.5418 162.295C85.2085 162.295 84.9618 162.218 84.8018 162.065C84.6452 161.912 84.5668 161.73 84.5668 161.52C84.5668 161.307 84.6368 161.138 84.7768 161.015C84.9202 160.892 85.0985 160.793 85.3118 160.72C85.5385 160.653 85.8052 160.595 86.1118 160.545C86.4218 160.495 86.7802 160.44 87.1868 160.38C87.1835 160.507 87.1752 160.648 87.1618 160.805C87.1485 160.962 87.1202 161.102 87.0768 161.225C87.0368 161.402 86.9518 161.572 86.8218 161.735C86.6952 161.898 86.5235 162.033 86.3068 162.14C86.0935 162.243 85.8385 162.295 85.5418 162.295ZM89.5202 163H90.5702V159.625C90.5702 159.258 90.6702 158.962 90.8702 158.735C91.0735 158.508 91.3402 158.395 91.6702 158.395C92.0035 158.395 92.2685 158.508 92.4652 158.735C92.6652 158.958 92.7652 159.265 92.7652 159.655L92.7602 163H93.8052L93.8102 159.625C93.8102 159.218 93.9185 158.912 94.1352 158.705C94.3552 158.498 94.6135 158.395 94.9102 158.395C95.2369 158.395 95.5002 158.505 95.7002 158.725C95.9002 158.945 96.0002 159.248 96.0002 159.635L95.9952 163H97.0402L97.0452 159.385C97.0452 158.805 96.8835 158.34 96.5602 157.99C96.2402 157.64 95.7902 157.465 95.2102 157.465C94.8569 157.465 94.5369 157.543 94.2502 157.7C93.9635 157.853 93.7369 158.067 93.5702 158.34C93.4269 158.067 93.2219 157.853 92.9552 157.7C92.6919 157.543 92.3735 157.465 92.0002 157.465C91.6769 157.465 91.3802 157.53 91.1102 157.66C90.8435 157.787 90.6235 157.96 90.4502 158.18V157.6H89.5202V163ZM100.67 163.15C101.194 163.15 101.669 163.018 102.095 162.755C102.522 162.488 102.84 162.113 103.05 161.63L102.025 161.305C101.752 161.878 101.284 162.165 100.62 162.165C100.167 162.165 99.8102 162.028 99.5502 161.755C99.2902 161.482 99.1385 161.095 99.0952 160.595H103.12C103.157 159.948 103.08 159.39 102.89 158.92C102.7 158.45 102.412 158.088 102.025 157.835C101.639 157.578 101.17 157.45 100.62 157.45C100.094 157.45 99.6319 157.568 99.2352 157.805C98.8385 158.042 98.5285 158.377 98.3052 158.81C98.0852 159.243 97.9752 159.755 97.9752 160.345C97.9752 160.902 98.0869 161.392 98.3102 161.815C98.5369 162.235 98.8519 162.563 99.2552 162.8C99.6619 163.033 100.134 163.15 100.67 163.15ZM100.66 158.375C101.477 158.375 101.94 158.843 102.05 159.78H99.1202C99.1869 159.323 99.3485 158.975 99.6052 158.735C99.8619 158.495 100.214 158.375 100.66 158.375Z" fill="white"/>
<path opacity="0.8" d="M167.7 163H172.3V162.015H168.745V159.79H171.7V158.805H168.745V156.785H172.3V155.8H167.7V163ZM172.901 163H174.146L175.531 161.085L176.906 163H178.151L176.126 160.27L178.101 157.6H176.861L175.531 159.455L174.186 157.6H172.946L174.921 160.27L172.901 163ZM178.945 165.4H179.995V162.62C180.185 162.79 180.403 162.92 180.65 163.01C180.9 163.103 181.178 163.15 181.485 163.15C181.988 163.15 182.422 163.025 182.785 162.775C183.152 162.522 183.433 162.18 183.63 161.75C183.83 161.32 183.93 160.835 183.93 160.295C183.93 159.752 183.83 159.267 183.63 158.84C183.43 158.41 183.145 158.072 182.775 157.825C182.408 157.575 181.972 157.45 181.465 157.45C181.132 157.45 180.832 157.507 180.565 157.62C180.298 157.73 180.068 157.885 179.875 158.085V157.6H178.945V165.4ZM181.34 162.205C180.827 162.205 180.453 162.027 180.22 161.67C179.99 161.313 179.875 160.855 179.875 160.295C179.875 159.735 179.99 159.278 180.22 158.925C180.45 158.572 180.812 158.395 181.305 158.395C181.652 158.395 181.937 158.48 182.16 158.65C182.383 158.82 182.548 159.048 182.655 159.335C182.765 159.622 182.82 159.942 182.82 160.295C182.82 160.652 182.767 160.975 182.66 161.265C182.553 161.552 182.39 161.78 182.17 161.95C181.953 162.12 181.677 162.205 181.34 162.205ZM185.134 156.715H186.179V155.7H185.134V156.715ZM185.134 163H186.179V157.6H185.134V163ZM187.68 163H188.735V160.275C188.735 159.958 188.785 159.665 188.885 159.395C188.985 159.125 189.162 158.908 189.415 158.745C189.595 158.628 189.794 158.56 190.01 158.54C190.227 158.52 190.422 158.533 190.595 158.58V157.6C190.352 157.553 190.094 157.555 189.82 157.605C189.55 157.655 189.314 157.755 189.11 157.905C188.91 158.038 188.744 158.223 188.61 158.46V157.6H187.68V163ZM192.141 165.4H193.136L196.116 157.6H195.056L193.531 161.66L191.936 157.6H190.846L193.031 162.975L192.141 165.4ZM198.901 163H201.156C201.223 163 201.346 162.998 201.526 162.995C201.71 162.992 201.885 162.978 202.051 162.955C202.615 162.882 203.088 162.68 203.471 162.35C203.858 162.017 204.15 161.595 204.346 161.085C204.543 160.572 204.641 160.01 204.641 159.4C204.641 158.787 204.543 158.225 204.346 157.715C204.15 157.202 203.858 156.78 203.471 156.45C203.088 156.117 202.615 155.915 202.051 155.845C201.885 155.822 201.71 155.808 201.526 155.805C201.346 155.802 201.223 155.8 201.156 155.8H198.901V163ZM199.971 162.005V156.795H201.156C201.266 156.795 201.4 156.798 201.556 156.805C201.716 156.808 201.856 156.822 201.976 156.845C202.336 156.912 202.63 157.068 202.856 157.315C203.086 157.558 203.256 157.862 203.366 158.225C203.476 158.585 203.531 158.977 203.531 159.4C203.531 159.81 203.478 160.197 203.371 160.56C203.265 160.923 203.096 161.23 202.866 161.48C202.64 161.727 202.343 161.885 201.976 161.955C201.856 161.978 201.718 161.993 201.561 162C201.408 162.003 201.273 162.005 201.156 162.005H199.971ZM207.33 163.15C208.19 163.15 208.839 162.838 209.275 162.215V163H210.2V159.675C210.2 159.448 210.19 159.237 210.17 159.04C210.15 158.843 210.097 158.657 210.01 158.48C209.844 158.123 209.58 157.863 209.22 157.7C208.864 157.533 208.444 157.45 207.96 157.45C207.337 157.45 206.837 157.587 206.46 157.86C206.084 158.133 205.83 158.502 205.7 158.965L206.675 159.265C206.769 158.965 206.934 158.748 207.17 158.615C207.407 158.482 207.667 158.415 207.95 158.415C208.37 158.415 208.674 158.505 208.86 158.685C209.05 158.862 209.154 159.137 209.17 159.51C208.73 159.57 208.3 159.633 207.88 159.7C207.46 159.763 207.094 159.84 206.78 159.93C206.364 160.063 206.047 160.262 205.83 160.525C205.614 160.788 205.505 161.123 205.505 161.53C205.505 161.823 205.574 162.093 205.71 162.34C205.85 162.583 206.055 162.78 206.325 162.93C206.599 163.077 206.934 163.15 207.33 163.15ZM207.515 162.295C207.182 162.295 206.935 162.218 206.775 162.065C206.619 161.912 206.54 161.73 206.54 161.52C206.54 161.307 206.61 161.138 206.75 161.015C206.894 160.892 207.072 160.793 207.285 160.72C207.512 160.653 207.779 160.595 208.085 160.545C208.395 160.495 208.754 160.44 209.16 160.38C209.157 160.507 209.149 160.648 209.135 160.805C209.122 160.962 209.094 161.102 209.05 161.225C209.01 161.402 208.925 161.572 208.795 161.735C208.669 161.898 208.497 162.033 208.28 162.14C208.067 162.243 207.812 162.295 207.515 162.295ZM214.589 163V162.115C214.235 162.168 213.927 162.18 213.664 162.15C213.404 162.117 213.214 161.998 213.094 161.795C213.03 161.685 212.995 161.55 212.989 161.39C212.985 161.23 212.984 161.042 212.984 160.825V158.44H214.589V157.6H212.984V156.1H211.934V157.6H210.899V158.44H211.934V160.875C211.934 161.168 211.937 161.432 211.944 161.665C211.954 161.895 212.017 162.122 212.134 162.345C212.267 162.595 212.462 162.778 212.719 162.895C212.975 163.012 213.267 163.075 213.594 163.085C213.92 163.095 214.252 163.067 214.589 163ZM217.868 163.15C218.392 163.15 218.867 163.018 219.293 162.755C219.72 162.488 220.038 162.113 220.248 161.63L219.223 161.305C218.95 161.878 218.482 162.165 217.818 162.165C217.365 162.165 217.008 162.028 216.748 161.755C216.488 161.482 216.337 161.095 216.293 160.595H220.318C220.355 159.948 220.278 159.39 220.088 158.92C219.898 158.45 219.61 158.088 219.223 157.835C218.837 157.578 218.368 157.45 217.818 157.45C217.292 157.45 216.83 157.568 216.433 157.805C216.037 158.042 215.727 158.377 215.503 158.81C215.283 159.243 215.173 159.755 215.173 160.345C215.173 160.902 215.285 161.392 215.508 161.815C215.735 162.235 216.05 162.563 216.453 162.8C216.86 163.033 217.332 163.15 217.868 163.15ZM217.858 158.375C218.675 158.375 219.138 158.843 219.248 159.78H216.318C216.385 159.323 216.547 158.975 216.803 158.735C217.06 158.495 217.412 158.375 217.858 158.375Z" fill="white"/>
<path d="M20.2388 187H26.6788V185.621H21.7018V182.506H25.8388V181.127H21.7018V178.299H26.6788V176.92H20.2388V187ZM28.3599 187H29.8369V183.185C29.8369 182.742 29.9069 182.331 30.0469 181.953C30.1869 181.575 30.4342 181.272 30.7889 181.043C31.0409 180.88 31.3185 180.784 31.6219 180.756C31.9252 180.728 32.1982 180.747 32.4409 180.812V179.44C32.1002 179.375 31.7385 179.377 31.3559 179.447C30.9779 179.517 30.6465 179.657 30.3619 179.867C30.0819 180.054 29.8485 180.313 29.6619 180.644V179.44H28.3599V187ZM33.9139 178.201H35.3769V176.78H33.9139V178.201ZM33.9139 187H35.3769V179.44H33.9139V187ZM40.713 187.21C41.525 187.21 42.2157 187.014 42.785 186.622C43.3544 186.23 43.7627 185.663 44.01 184.921L42.526 184.571C42.372 184.977 42.148 185.29 41.854 185.509C41.5647 185.724 41.1844 185.831 40.713 185.831C40.0224 185.831 39.4997 185.591 39.145 185.11C38.795 184.629 38.6177 183.999 38.613 183.22C38.6177 182.464 38.788 181.841 39.124 181.351C39.4647 180.856 39.9944 180.609 40.713 180.609C41.1377 180.609 41.5134 180.728 41.84 180.966C42.1714 181.199 42.4094 181.528 42.554 181.953L44.01 181.533C43.8234 180.824 43.436 180.264 42.848 179.853C42.2647 179.438 41.56 179.23 40.734 179.23C39.9734 179.23 39.3177 179.4 38.767 179.741C38.221 180.082 37.801 180.553 37.507 181.155C37.213 181.752 37.0637 182.441 37.059 183.22C37.0637 183.985 37.2084 184.669 37.493 185.271C37.7824 185.873 38.1977 186.347 38.739 186.692C39.285 187.037 39.943 187.21 40.713 187.21ZM48.3788 187H54.4058V185.621H49.8418V176.92H48.3788V187ZM57.7293 187.21C58.9333 187.21 59.8409 186.774 60.4523 185.901V187H61.7473V182.345C61.7473 182.028 61.7333 181.731 61.7053 181.456C61.6773 181.181 61.6026 180.919 61.4813 180.672C61.2479 180.173 60.8793 179.809 60.3753 179.58C59.8759 179.347 59.2879 179.23 58.6113 179.23C57.7386 179.23 57.0386 179.421 56.5113 179.804C55.9839 180.187 55.6293 180.702 55.4473 181.351L56.8123 181.771C56.9429 181.351 57.1739 181.048 57.5053 180.861C57.8366 180.674 58.2006 180.581 58.5973 180.581C59.1853 180.581 59.6099 180.707 59.8713 180.959C60.1373 181.206 60.2819 181.591 60.3053 182.114C59.6893 182.198 59.0873 182.287 58.4993 182.38C57.9113 182.469 57.3979 182.576 56.9593 182.702C56.3759 182.889 55.9326 183.166 55.6293 183.535C55.3259 183.904 55.1743 184.373 55.1743 184.942C55.1743 185.353 55.2699 185.731 55.4613 186.076C55.6573 186.417 55.9443 186.692 56.3223 186.902C56.7049 187.107 57.1739 187.21 57.7293 187.21ZM57.9883 186.013C57.5216 186.013 57.1763 185.906 56.9523 185.691C56.7329 185.476 56.6233 185.222 56.6233 184.928C56.6233 184.629 56.7213 184.394 56.9173 184.221C57.1179 184.048 57.3676 183.911 57.6663 183.808C57.9836 183.715 58.3569 183.633 58.7863 183.563C59.2203 183.493 59.7219 183.416 60.2913 183.332C60.2866 183.509 60.2749 183.708 60.2563 183.927C60.2376 184.146 60.1979 184.342 60.1373 184.515C60.0813 184.762 59.9623 185 59.7803 185.229C59.6029 185.458 59.3626 185.647 59.0593 185.796C58.7606 185.941 58.4036 186.013 57.9883 186.013ZM63.558 187H65.042V183.066C65.042 182.469 65.1283 181.993 65.301 181.638C65.4783 181.279 65.7116 181.02 66.001 180.861C66.2903 180.702 66.61 180.623 66.96 180.623C67.3613 180.623 67.688 180.705 67.94 180.868C68.192 181.031 68.3856 181.246 68.521 181.512C68.6563 181.778 68.7473 182.067 68.794 182.38C68.8453 182.688 68.871 182.989 68.871 183.283V187H70.355V182.8C70.355 182.567 70.334 182.296 70.292 181.988C70.25 181.68 70.1706 181.365 70.054 181.043C69.9373 180.721 69.767 180.425 69.543 180.154C69.3236 179.879 69.0366 179.657 68.682 179.489C68.3273 179.321 67.8886 179.237 67.366 179.237C66.82 179.237 66.3346 179.335 65.91 179.531C65.49 179.727 65.1423 179.998 64.867 180.343V179.44H63.558V187ZM72.3182 178.201H73.7812V176.78H72.3182V178.201ZM72.3182 187H73.7812V179.44H72.3182V187ZM78.7743 187.203C79.731 187.203 80.48 186.991 81.0213 186.566C81.5673 186.141 81.8403 185.556 81.8403 184.809C81.8403 184.417 81.7587 184.086 81.5953 183.815C81.4367 183.544 81.1707 183.311 80.7973 183.115C80.424 182.914 79.92 182.732 79.2853 182.569C78.6927 182.42 78.2447 182.291 77.9413 182.184C77.6427 182.072 77.4397 181.96 77.3323 181.848C77.225 181.731 77.1713 181.589 77.1713 181.421C77.1713 181.132 77.309 180.905 77.5843 180.742C77.8597 180.574 78.219 180.499 78.6623 180.518C79.1243 180.537 79.5 180.653 79.7893 180.868C80.0787 181.078 80.249 181.363 80.3003 181.722L81.7983 181.449C81.7143 180.777 81.3853 180.24 80.8113 179.839C80.2373 179.433 79.5163 179.23 78.6483 179.23C77.7617 179.23 77.05 179.438 76.5133 179.853C75.9767 180.264 75.7083 180.812 75.7083 181.498C75.7083 181.867 75.7877 182.182 75.9463 182.443C76.1097 182.7 76.3803 182.924 76.7583 183.115C77.141 183.306 77.6567 183.488 78.3053 183.661C78.898 183.82 79.339 183.953 79.6283 184.06C79.9177 184.167 80.1067 184.282 80.1953 184.403C80.2887 184.52 80.3353 184.674 80.3353 184.865C80.3353 185.192 80.2047 185.448 79.9433 185.635C79.6867 185.822 79.3297 185.915 78.8723 185.915C78.3683 185.915 77.946 185.803 77.6053 185.579C77.2693 185.355 77.0547 185.045 76.9613 184.648L75.4633 184.879C75.594 185.616 75.9487 186.188 76.5273 186.594C77.106 187 77.855 187.203 78.7743 187.203ZM87.7152 187V185.761C87.2205 185.836 86.7888 185.852 86.4202 185.81C86.0562 185.763 85.7902 185.598 85.6222 185.313C85.5335 185.159 85.4845 184.97 85.4752 184.746C85.4705 184.522 85.4682 184.258 85.4682 183.955V180.616H87.7152V179.44H85.4682V177.34H83.9982V179.44H82.5492V180.616H83.9982V184.025C83.9982 184.436 84.0028 184.804 84.0122 185.131C84.0262 185.453 84.1148 185.77 84.2782 186.083C84.4648 186.433 84.7378 186.69 85.0972 186.853C85.4565 187.016 85.8648 187.105 86.3222 187.119C86.7795 187.133 87.2438 187.093 87.7152 187ZM92.3066 187.21C93.0393 187.21 93.7043 187.026 94.3016 186.657C94.899 186.284 95.3446 185.759 95.6386 185.082L94.2036 184.627C93.821 185.43 93.1653 185.831 92.2366 185.831C91.602 185.831 91.1026 185.64 90.7386 185.257C90.3746 184.874 90.1623 184.333 90.1016 183.633H95.7366C95.788 182.728 95.6806 181.946 95.4146 181.288C95.1486 180.63 94.745 180.124 94.2036 179.769C93.6623 179.41 93.0066 179.23 92.2366 179.23C91.4993 179.23 90.853 179.396 90.2976 179.727C89.7423 180.058 89.3083 180.527 88.9956 181.134C88.6876 181.741 88.5336 182.457 88.5336 183.283C88.5336 184.062 88.69 184.748 89.0026 185.341C89.32 185.929 89.761 186.389 90.3256 186.72C90.895 187.047 91.5553 187.21 92.3066 187.21ZM92.2926 180.525C93.436 180.525 94.0846 181.181 94.2386 182.492H90.1366C90.23 181.853 90.4563 181.365 90.8156 181.029C91.175 180.693 91.6673 180.525 92.2926 180.525ZM97.3071 187H98.7841V183.185C98.7841 182.742 98.8541 182.331 98.9941 181.953C99.1341 181.575 99.3815 181.272 99.7361 181.043C99.9881 180.88 100.266 180.784 100.569 180.756C100.872 180.728 101.145 180.747 101.388 180.812V179.44C101.047 179.375 100.686 179.377 100.303 179.447C99.9251 179.517 99.5938 179.657 99.3091 179.867C99.0291 180.054 98.7958 180.313 98.6091 180.644V179.44H97.3071V187Z" fill="white"/>
<path d="M171.882 187.21C172.568 187.21 173.174 187.061 173.702 186.762C174.229 186.459 174.642 186.043 174.941 185.516C175.244 184.984 175.396 184.377 175.396 183.696V180.224C175.396 179.538 175.244 178.931 174.941 178.404C174.642 177.877 174.229 177.464 173.702 177.165C173.174 176.862 172.568 176.71 171.882 176.71C171.2 176.71 170.594 176.862 170.062 177.165C169.534 177.464 169.119 177.877 168.816 178.404C168.517 178.931 168.368 179.538 168.368 180.224V183.696C168.368 184.377 168.517 184.984 168.816 185.516C169.119 186.043 169.534 186.459 170.062 186.762C170.594 187.061 171.2 187.21 171.882 187.21ZM171.882 185.81C171.508 185.81 171.168 185.721 170.86 185.544C170.552 185.362 170.307 185.117 170.125 184.809C169.947 184.501 169.859 184.16 169.859 183.787V180.119C169.859 179.746 169.947 179.407 170.125 179.104C170.307 178.796 170.552 178.553 170.86 178.376C171.168 178.194 171.508 178.103 171.882 178.103C172.26 178.103 172.6 178.194 172.904 178.376C173.212 178.553 173.454 178.796 173.632 179.104C173.814 179.407 173.905 179.746 173.905 180.119V183.787C173.905 184.16 173.814 184.501 173.632 184.809C173.454 185.117 173.212 185.362 172.904 185.544C172.6 185.721 172.26 185.81 171.882 185.81ZM180.339 187.21C180.969 187.21 181.548 187.058 182.075 186.755C182.607 186.452 183.034 186.046 183.356 185.537C183.678 185.024 183.839 184.454 183.839 183.829C183.839 183.199 183.697 182.634 183.412 182.135C183.132 181.636 182.745 181.244 182.25 180.959C181.76 180.67 181.2 180.525 180.57 180.525C180.271 180.525 179.97 180.572 179.667 180.665C179.368 180.758 179.095 180.894 178.848 181.071L179.016 178.299H183.146V176.92H177.707L177.399 182.219L178.673 182.667C178.832 182.457 179.053 182.27 179.338 182.107C179.623 181.939 179.97 181.855 180.381 181.855C180.74 181.855 181.069 181.944 181.368 182.121C181.671 182.294 181.912 182.529 182.089 182.828C182.271 183.127 182.362 183.46 182.362 183.829C182.362 184.188 182.273 184.517 182.096 184.816C181.919 185.115 181.681 185.353 181.382 185.53C181.083 185.707 180.75 185.796 180.381 185.796C179.961 185.796 179.567 185.665 179.198 185.404C178.834 185.138 178.594 184.781 178.477 184.333L177.07 184.711C177.21 185.201 177.439 185.635 177.756 186.013C178.073 186.386 178.454 186.68 178.897 186.895C179.34 187.105 179.821 187.21 180.339 187.21ZM188.06 176.92H189.537L186.849 187H185.372L188.06 176.92ZM191.084 186.993H197.902V185.6H193.345L196.264 182.996C196.628 182.674 196.931 182.375 197.174 182.1C197.416 181.825 197.598 181.526 197.72 181.204C197.841 180.877 197.902 180.485 197.902 180.028C197.902 179.389 197.755 178.819 197.461 178.32C197.171 177.821 196.775 177.429 196.271 177.144C195.767 176.855 195.197 176.71 194.563 176.71C193.895 176.71 193.3 176.85 192.778 177.13C192.26 177.405 191.854 177.79 191.56 178.285C191.266 178.775 191.119 179.347 191.119 180H192.617C192.612 179.659 192.691 179.347 192.855 179.062C193.023 178.773 193.251 178.542 193.541 178.369C193.83 178.192 194.161 178.103 194.535 178.103C195.076 178.103 195.522 178.285 195.872 178.649C196.222 179.013 196.397 179.466 196.397 180.007C196.397 180.292 196.331 180.576 196.201 180.861C196.075 181.141 195.834 181.44 195.48 181.757L191.091 185.691L191.084 186.993ZM202.402 187.189C203.032 187.189 203.601 187.047 204.11 186.762C204.618 186.477 205.022 186.085 205.321 185.586C205.619 185.082 205.769 184.51 205.769 183.871C205.769 183.325 205.661 182.826 205.447 182.373C205.237 181.92 204.933 181.549 204.537 181.26C204.145 180.966 203.676 180.782 203.13 180.707L205.622 178.313V176.92H199.56V178.313H203.83L200.75 181.036L201.436 182.191C201.748 182.023 202.066 181.939 202.388 181.939C202.948 181.939 203.4 182.121 203.746 182.485C204.096 182.849 204.271 183.311 204.271 183.871C204.271 184.426 204.098 184.886 203.753 185.25C203.407 185.609 202.957 185.794 202.402 185.803C201.991 185.808 201.618 185.696 201.282 185.467C200.946 185.238 200.71 184.905 200.575 184.466L199.161 184.858C199.305 185.334 199.536 185.747 199.854 186.097C200.176 186.447 200.556 186.718 200.995 186.909C201.433 187.096 201.902 187.189 202.402 187.189Z" fill="white"/>
<defs>
<linearGradient id="paint0_linear" x1="107.5" y1="213.5" x2="299" y2="92.5" gradientUnits="userSpaceOnUse">
<stop stop-color="white"/>
<stop offset="1" stop-color="white" stop-opacity="0"/>
</linearGradient>
<linearGradient id="paint1_linear" x1="314.5" y1="-91" x2="314.5" y2="150" gradientUnits="userSpaceOnUse">
<stop stop-color="white"/>
<stop offset="1" stop-color="white" stop-opacity="0"/>
</linearGradient>
</defs>
</svg>
